<?xml version="1.0" encoding="utf-8"?>
<!-- Generator: Adobe Illustrator 19.2.1, SVG Export Plug-In . SVG Version: 6.00 Build 0)  -->
<svg version="1.1" id="Ebene_1" xmlns="http://www.w3.org/2000/svg" xmlns:xlink="http://www.w3.org/1999/xlink" x="0px" y="0px"
	 viewBox="0 0 333.6 69.3" style="enable-background:new 0 0 333.6 69.3;" xml:space="preserve">
<style type="text/css">
	.st0{fill:#003049;}
	.st1{fill:#0085CA;}
</style>
<g>
	<path class="st0" d="M73.9,26.3V8.9h2.5c6.7,0,11.5,4,11.5,11.2c0,4.9-2.1,8.1-5.2,9.8c4.1,1.2,8.3,1.8,12.9,1
		c2-3.1,3.2-6.8,3.2-10.8C98.8,8.8,89.6,0,78.4,0H63.5v21.2C67,22.8,70.5,24.7,73.9,26.3z"/>
</g>
<path class="st0" d="M0,32.3c55.1-27.2,60.8,37.1,109.9,0C68.6,82.8,55.4,18.8,0,32.3z"/>
<path class="st1" d="M30,23.1c32.1-14.3,45.5,26,76.7,4.6C76.7,58.9,56.1,18.3,30,23.1z"/>
<path class="st0" d="M135.7,6c2,0,3.9,0.3,5.6,1c1.7,0.6,3.2,1.6,4.5,2.9c1.3,1.3,2.3,2.9,3,4.8c0.7,1.9,1.1,4.2,1.1,6.8
	c0,2.3-0.3,4.4-0.9,6.3c-0.6,1.9-1.5,3.6-2.6,5c-1.2,1.4-2.7,2.5-4.4,3.3c-1.8,0.8-3.8,1.2-6.2,1.2h-13.5V6H135.7z M135.2,31.5
	c1,0,2-0.2,2.9-0.5s1.8-0.9,2.5-1.6c0.7-0.7,1.3-1.7,1.8-2.9c0.4-1.2,0.7-2.7,0.7-4.4c0-1.6-0.2-3-0.5-4.3s-0.8-2.4-1.5-3.3
	c-0.7-0.9-1.6-1.6-2.8-2.1s-2.6-0.7-4.3-0.7h-4.9v19.7L135.2,31.5L135.2,31.5z"/>
<path class="st0" d="M154.8,18c0.6-1,1.5-1.7,2.5-2.3s2.1-1,3.3-1.2s2.5-0.4,3.7-0.4c1.1,0,2.3,0.1,3.5,0.2c1.2,0.2,2.2,0.5,3.2,0.9
	c1,0.5,1.8,1.1,2.4,1.9c0.6,0.8,0.9,1.9,0.9,3.3v11.8c0,1,0.1,2,0.2,2.9c0.1,0.9,0.3,1.6,0.6,2.1h-6.3c-0.1-0.3-0.2-0.7-0.3-1.1
	s-0.1-0.7-0.2-1.1c-1,1-2.2,1.7-3.5,2.1s-2.7,0.6-4.1,0.6c-1.1,0-2.1-0.1-3-0.4s-1.8-0.7-2.5-1.2c-0.7-0.6-1.2-1.3-1.6-2.1
	c-0.4-0.8-0.6-1.9-0.6-3c0-1.3,0.2-2.3,0.7-3.2c0.5-0.8,1-1.5,1.8-2c0.7-0.5,1.5-0.9,2.5-1.1c0.9-0.2,1.8-0.4,2.8-0.6
	c0.9-0.1,1.9-0.3,2.8-0.4c0.9-0.1,1.7-0.2,2.4-0.4s1.3-0.4,1.7-0.8c0.4-0.3,0.6-0.8,0.6-1.5s-0.1-1.2-0.3-1.6
	c-0.2-0.4-0.5-0.7-0.9-0.9s-0.8-0.4-1.3-0.4c-0.5-0.1-1-0.1-1.6-0.1c-1.2,0-2.2,0.3-2.9,0.8s-1.1,1.4-1.2,2.6h-6.2
	C153.8,20.1,154.1,18.9,154.8,18z M167,26.7c-0.4,0.1-0.8,0.2-1.3,0.3s-0.9,0.2-1.4,0.2c-0.5,0.1-1,0.1-1.5,0.2
	c-0.5,0.1-0.9,0.2-1.4,0.3s-0.8,0.3-1.2,0.6c-0.3,0.2-0.6,0.6-0.8,0.9c-0.2,0.4-0.3,0.9-0.3,1.4c0,0.6,0.1,1,0.3,1.4
	c0.2,0.4,0.5,0.7,0.8,0.9c0.3,0.2,0.8,0.4,1.2,0.5c0.5,0.1,0.9,0.1,1.4,0.1c1.2,0,2.2-0.2,2.8-0.6c0.7-0.4,1.2-0.9,1.5-1.5
	c0.3-0.6,0.5-1.1,0.6-1.7c0.1-0.6,0.1-1.1,0.1-1.4V26C167.8,26.4,167.4,26.6,167,26.7z"/>
<path class="st0" d="M191.5,14.6v4.2H187V30c0,1,0.2,1.8,0.5,2.1c0.3,0.3,1,0.5,2.1,0.5c0.4,0,0.7,0,1,0s0.6-0.1,0.9-0.1v4.8
	c-0.5,0.1-1.1,0.1-1.8,0.2c-0.6,0-1.3,0-1.9,0c-1,0-1.9-0.1-2.7-0.2c-0.9-0.1-1.6-0.4-2.3-0.8s-1.2-0.9-1.6-1.6
	c-0.4-0.7-0.6-1.6-0.6-2.8V18.8h-3.8v-4.2h3.8V7.8h6.2v6.8H191.5z"/>
<path class="st0" d="M195.3,18c0.6-1,1.5-1.7,2.5-2.3s2.1-1,3.3-1.2s2.5-0.4,3.7-0.4c1.1,0,2.3,0.1,3.5,0.2c1.2,0.2,2.2,0.5,3.2,0.9
	c1,0.5,1.8,1.1,2.4,1.9c0.6,0.8,0.9,1.9,0.9,3.3v11.8c0,1,0.1,2,0.2,2.9c0.1,0.9,0.3,1.6,0.6,2.1h-6.3c-0.1-0.3-0.2-0.7-0.3-1.1
	s-0.1-0.7-0.2-1.1c-1,1-2.2,1.7-3.5,2.1s-2.7,0.6-4.1,0.6c-1.1,0-2.1-0.1-3-0.4s-1.8-0.7-2.5-1.2c-0.7-0.6-1.2-1.3-1.6-2.1
	c-0.4-0.8-0.6-1.9-0.6-3c0-1.3,0.2-2.3,0.7-3.2c0.5-0.8,1-1.5,1.8-2c0.7-0.5,1.5-0.9,2.5-1.1c0.9-0.2,1.8-0.4,2.8-0.6
	c0.9-0.1,1.9-0.3,2.8-0.4c0.9-0.1,1.7-0.2,2.4-0.4s1.3-0.4,1.7-0.8c0.4-0.3,0.6-0.8,0.6-1.5s-0.1-1.2-0.3-1.6
	c-0.2-0.4-0.5-0.7-0.9-0.9s-0.8-0.4-1.3-0.4c-0.5-0.1-1-0.1-1.6-0.1c-1.2,0-2.2,0.3-2.9,0.8s-1.1,1.4-1.2,2.6h-6.2
	C194.3,20.1,194.6,18.9,195.3,18z M207.6,26.7c-0.4,0.1-0.8,0.2-1.3,0.3s-0.9,0.2-1.4,0.2c-0.5,0.1-1,0.1-1.5,0.2
	c-0.5,0.1-0.9,0.2-1.4,0.3s-0.8,0.3-1.2,0.6c-0.3,0.2-0.6,0.6-0.8,0.9c-0.2,0.4-0.3,0.9-0.3,1.4c0,0.6,0.1,1,0.3,1.4
	c0.2,0.4,0.5,0.7,0.8,0.9c0.3,0.2,0.8,0.4,1.2,0.5c0.5,0.1,0.9,0.1,1.4,0.1c1.2,0,2.2-0.2,2.8-0.6c0.7-0.4,1.2-0.9,1.5-1.5
	c0.3-0.6,0.5-1.1,0.6-1.7c0.1-0.6,0.1-1.1,0.1-1.4V26C208.3,26.4,207.9,26.6,207.6,26.7z"/>
<path class="st0" d="M225.6,14.6v3.1h0.1c0.8-1.2,1.8-2.1,3-2.7c1.2-0.6,2.5-1,4-1c1.4,0,2.7,0.3,3.9,0.8c1.2,0.6,2.1,1.5,2.7,2.9
	c0.7-1,1.6-1.9,2.7-2.6c1.2-0.8,2.5-1.1,4.1-1.1c1.2,0,2.3,0.1,3.3,0.4c1,0.3,1.9,0.8,2.6,1.4c0.7,0.6,1.3,1.5,1.7,2.5
	c0.4,1,0.6,2.3,0.6,3.7v15.1h-6.2V24.4c0-0.8,0-1.5-0.1-2.1c-0.1-0.7-0.2-1.3-0.5-1.8s-0.6-0.9-1.2-1.2c-0.5-0.3-1.2-0.4-2.1-0.4
	s-1.6,0.2-2.1,0.5s-1,0.8-1.3,1.3s-0.5,1.2-0.6,1.8c-0.1,0.7-0.2,1.4-0.2,2.1v12.6h-6.2V24.6c0-0.7,0-1.3,0-2s-0.2-1.3-0.4-1.8
	c-0.2-0.6-0.6-1-1.1-1.3S231,19,230,19c-0.3,0-0.7,0.1-1.2,0.2c-0.5,0.1-0.9,0.4-1.4,0.7c-0.5,0.4-0.8,0.9-1.2,1.6
	c-0.3,0.7-0.5,1.6-0.5,2.7v13.1h-6.2V14.6H225.6z"/>
<path class="st0" d="M265.9,31.8c0.9,0.9,2.3,1.4,4,1.4c1.3,0,2.3-0.3,3.2-0.9c0.9-0.6,1.5-1.3,1.7-2h5.5c-0.9,2.7-2.2,4.7-4,5.8
	c-1.8,1.2-4,1.8-6.6,1.8c-1.8,0-3.4-0.3-4.8-0.9s-2.6-1.4-3.6-2.4s-1.8-2.3-2.3-3.8c-0.5-1.5-0.8-3.1-0.8-4.8s0.3-3.3,0.8-4.7
	c0.6-1.5,1.3-2.7,2.4-3.8c1-1.1,2.2-1.9,3.7-2.5c1.4-0.6,3-0.9,4.7-0.9c1.9,0,3.6,0.4,5,1.1c1.4,0.7,2.6,1.7,3.5,3s1.6,2.7,2,4.3
	s0.6,3.3,0.4,5h-16.3C264.4,29.5,264.9,30.9,265.9,31.8z M272.9,19.9c-0.7-0.8-1.9-1.2-3.4-1.2c-1,0-1.8,0.2-2.5,0.5
	s-1.2,0.8-1.6,1.2c-0.4,0.5-0.7,1-0.8,1.6c-0.2,0.6-0.3,1-0.3,1.5h10.1C274.1,21.9,273.6,20.7,272.9,19.9z"/>
<path class="st0" d="M291,31.8c0.9,0.9,2.3,1.4,4,1.4c1.3,0,2.3-0.3,3.2-0.9c0.9-0.6,1.5-1.3,1.7-2h5.5c-0.9,2.7-2.2,4.7-4,5.8
	c-1.8,1.2-4,1.8-6.6,1.8c-1.8,0-3.4-0.3-4.8-0.9s-2.6-1.4-3.6-2.4s-1.8-2.3-2.3-3.8c-0.5-1.5-0.8-3.1-0.8-4.8s0.3-3.3,0.8-4.7
	c0.6-1.5,1.3-2.7,2.4-3.8c1-1.1,2.2-1.9,3.7-2.5c1.4-0.6,3-0.9,4.7-0.9c1.9,0,3.6,0.4,5,1.1c1.4,0.7,2.6,1.7,3.5,3s1.6,2.7,2,4.3
	s0.6,3.3,0.4,5h-16.4C289.5,29.5,290,30.9,291,31.8z M298,19.9c-0.7-0.8-1.9-1.2-3.4-1.2c-1,0-1.8,0.2-2.5,0.5s-1.2,0.8-1.6,1.2
	c-0.4,0.5-0.7,1-0.8,1.6c-0.2,0.6-0.3,1-0.3,1.5h10.1C299.2,21.9,298.7,20.7,298,19.9z"/>
<path class="st0" d="M315.3,14.6v4.2h0.1c0.3-0.7,0.7-1.3,1.2-1.9c0.5-0.6,1.1-1.1,1.7-1.5s1.3-0.8,2.1-1c0.7-0.2,1.5-0.4,2.3-0.4
	c0.4,0,0.9,0.1,1.4,0.2V20c-0.3-0.1-0.6-0.1-1.1-0.2c-0.4,0-0.8-0.1-1.2-0.1c-1.1,0-2.1,0.2-2.9,0.6c-0.8,0.4-1.4,0.9-1.9,1.6
	c-0.5,0.7-0.8,1.4-1,2.3c-0.2,0.9-0.3,1.8-0.3,2.8v10.2h-6.3V14.6H315.3z"/>
<path class="st0" d="M197,62c0.2,0.3,0.4,0.5,0.7,0.7s0.6,0.3,1,0.4s0.7,0.1,1.1,0.1c0.3,0,0.6,0,0.9-0.1c0.3,0,0.6-0.1,0.9-0.2
	c0.3-0.1,0.5-0.3,0.7-0.5s0.3-0.5,0.3-0.9c0-0.5-0.2-0.9-0.6-1.1c-0.4-0.3-0.8-0.5-1.4-0.6c-0.6-0.2-1.2-0.3-1.8-0.4
	s-1.3-0.3-1.8-0.5c-0.6-0.2-1-0.6-1.4-1s-0.6-1-0.6-1.8c0-0.6,0.1-1.1,0.4-1.5c0.3-0.4,0.6-0.8,1-1c0.4-0.3,0.9-0.5,1.4-0.6
	s1-0.2,1.5-0.2c0.7,0,1.3,0.1,1.8,0.2c0.6,0.1,1.1,0.3,1.5,0.6c0.4,0.3,0.8,0.7,1,1.1c0.3,0.5,0.4,1.1,0.5,1.8h-1.9
	c0-0.4-0.1-0.7-0.3-0.9c-0.2-0.2-0.4-0.4-0.6-0.6c-0.3-0.2-0.5-0.3-0.8-0.3c-0.3-0.1-0.6-0.1-0.9-0.1c-0.3,0-0.6,0-0.9,0.1
	c-0.3,0-0.6,0.1-0.8,0.2s-0.4,0.3-0.6,0.5c-0.2,0.2-0.2,0.4-0.2,0.7c0,0.3,0.1,0.6,0.4,0.8c0.2,0.2,0.5,0.4,0.9,0.5s0.8,0.3,1.2,0.4
	c0.5,0.1,0.9,0.2,1.4,0.3c0.5,0.1,1,0.2,1.4,0.4c0.5,0.2,0.9,0.4,1.2,0.6c0.4,0.2,0.6,0.6,0.9,0.9c0.2,0.4,0.3,0.8,0.3,1.4
	c0,0.7-0.1,1.3-0.4,1.8c-0.3,0.5-0.7,0.8-1.2,1.1c-0.5,0.3-1,0.5-1.6,0.6s-1.2,0.2-1.8,0.2s-1.3-0.1-1.9-0.2
	c-0.6-0.1-1.1-0.4-1.6-0.7c-0.5-0.3-0.8-0.7-1.1-1.2s-0.4-1.1-0.5-1.8h1.9C196.7,61.3,196.8,61.7,197,62z"/>
<path class="st0" d="M211.8,52.9v1.7h-2.3v7.2c0,0.2,0,0.4,0.1,0.5c0,0.1,0.1,0.2,0.2,0.3c0.1,0.1,0.3,0.1,0.4,0.1
	c0.2,0,0.4,0,0.7,0h0.9v1.7h-1.5c-0.5,0-0.9,0-1.3-0.1c-0.4-0.1-0.6-0.2-0.9-0.4c-0.2-0.2-0.4-0.4-0.5-0.8c-0.1-0.3-0.2-0.8-0.2-1.3
	v-7.4h-2v-1.7h2v-3.5h1.9v3.5h2.5V52.9z"/>
<path class="st0" d="M222.9,64.8c-0.5,0-0.9-0.1-1.2-0.4s-0.4-0.7-0.4-1.4c-0.5,0.6-1.1,1.1-1.8,1.4s-1.5,0.4-2.3,0.4
	c-0.5,0-1-0.1-1.5-0.2s-0.9-0.3-1.2-0.6c-0.4-0.3-0.6-0.6-0.8-1s-0.3-0.9-0.3-1.5c0-0.7,0.1-1.2,0.3-1.6s0.5-0.8,0.9-1
	c0.4-0.3,0.8-0.5,1.3-0.6s1-0.2,1.5-0.3c0.5-0.1,1-0.2,1.5-0.2c0.5-0.1,0.9-0.1,1.3-0.2c0.4-0.1,0.6-0.2,0.9-0.4
	c0.2-0.2,0.3-0.5,0.3-0.8c0-0.4-0.1-0.8-0.2-1c-0.2-0.3-0.4-0.5-0.6-0.6c-0.2-0.1-0.5-0.2-0.8-0.3c-0.3,0-0.6-0.1-0.9-0.1
	c-0.8,0-1.5,0.2-2,0.5s-0.8,0.9-0.9,1.8h-1.9c0-0.7,0.2-1.3,0.5-1.8s0.6-0.9,1.1-1.2c0.5-0.3,1-0.5,1.6-0.7c0.6-0.1,1.2-0.2,1.9-0.2
	c0.5,0,1.1,0,1.6,0.1s1,0.2,1.4,0.5c0.4,0.2,0.8,0.6,1,1c0.3,0.4,0.4,1,0.4,1.7v6c0,0.5,0,0.8,0.1,1s0.2,0.3,0.5,0.3
	c0.2,0,0.4,0,0.6-0.1v1.5C223.9,64.7,223.5,64.8,222.9,64.8z M220.2,58.9c-0.4,0.1-0.8,0.2-1.2,0.2c-0.4,0.1-0.9,0.1-1.3,0.2
	c-0.4,0.1-0.8,0.2-1.2,0.3c-0.3,0.2-0.6,0.4-0.8,0.6c-0.2,0.3-0.3,0.7-0.3,1.1c0,0.3,0.1,0.6,0.2,0.8c0.1,0.2,0.3,0.4,0.5,0.5
	s0.4,0.2,0.7,0.3c0.3,0.1,0.6,0.1,0.8,0.1c0.6,0,1.2-0.1,1.6-0.3c0.5-0.2,0.8-0.4,1.1-0.7c0.3-0.3,0.5-0.5,0.6-0.9
	c0.1-0.3,0.2-0.6,0.2-0.9v-2C220.9,58.7,220.6,58.9,220.2,58.9z"/>
<path class="st0" d="M230,67.6c-0.2,0.4-0.5,0.7-0.7,1c-0.3,0.2-0.6,0.4-0.9,0.5c-0.3,0.1-0.7,0.2-1.1,0.2c-0.2,0-0.5,0-0.7,0
	s-0.4-0.1-0.7-0.2v-1.8c0.2,0.1,0.4,0.1,0.6,0.2c0.2,0.1,0.4,0.1,0.6,0.1c0.4,0,0.7-0.1,0.9-0.3c0.2-0.2,0.5-0.4,0.6-0.8l0.8-2
	l-4.6-11.6h2.2l3.4,9.6l0,0l3.3-9.6h2l-5.1,13.2C230.4,66.7,230.2,67.2,230,67.6z"/>
<path class="st0" d="M250.6,54.9c-0.5-0.4-1.1-0.6-1.9-0.6c-0.7,0-1.3,0.1-1.7,0.4c-0.5,0.3-0.8,0.6-1.1,1c-0.3,0.4-0.5,0.9-0.6,1.5
	c-0.1,0.5-0.2,1.1-0.2,1.7c0,0.5,0.1,1.1,0.2,1.6s0.3,1,0.6,1.4c0.3,0.4,0.6,0.7,1.1,1c0.4,0.2,1,0.4,1.6,0.4c0.9,0,1.7-0.2,2.2-0.7
	s0.9-1.2,1-2.1h2c-0.2,1.4-0.8,2.6-1.6,3.3c-0.9,0.8-2,1.2-3.5,1.2c-0.9,0-1.7-0.1-2.4-0.4c-0.7-0.3-1.3-0.7-1.7-1.2
	c-0.5-0.5-0.8-1.2-1-1.9c-0.2-0.7-0.4-1.5-0.4-2.4s0.1-1.7,0.3-2.5c0.2-0.8,0.6-1.4,1-2c0.5-0.6,1-1,1.7-1.3s1.5-0.5,2.4-0.5
	c0.7,0,1.3,0.1,1.9,0.2s1.1,0.4,1.5,0.7c0.4,0.3,0.8,0.7,1.1,1.3c0.3,0.5,0.5,1.1,0.5,1.8h-2C251.4,55.9,251.1,55.3,250.6,54.9z"/>
<path class="st0" d="M263.6,64.6v-1.9l0,0c-0.4,0.7-0.9,1.3-1.6,1.6c-0.6,0.3-1.4,0.5-2.2,0.5c-0.8,0-1.4-0.1-1.9-0.3
	c-0.5-0.2-0.9-0.5-1.2-0.9c-0.3-0.4-0.5-0.8-0.7-1.3c-0.1-0.5-0.2-1.1-0.2-1.7v-7.7h1.9v7.9c0,0.7,0.2,1.3,0.6,1.7
	c0.4,0.4,1,0.6,1.7,0.6c0.6,0,1.1-0.1,1.5-0.3c0.4-0.2,0.8-0.4,1.1-0.8c0.3-0.3,0.5-0.7,0.6-1.2c0.1-0.4,0.2-0.9,0.2-1.5v-6.6h1.9
	v11.7h-1.7V64.6z"/>
<path class="st0" d="M270.1,52.9v2.5l0,0c0.5-0.9,1-1.6,1.7-2.1s1.5-0.7,2.6-0.6v2c-0.8,0-1.4,0.1-2,0.3c-0.5,0.2-1,0.5-1.3,0.9
	s-0.6,0.9-0.7,1.5c-0.2,0.6-0.2,1.2-0.2,2v5.2h-1.9V52.9H270.1z"/>
<path class="st0" d="M276,50.8v-2.4h1.9v2.4H276z M277.9,52.9v11.7H276V52.9H277.9z"/>
<path class="st0" d="M280.6,56.3c0.2-0.7,0.6-1.4,1.1-1.9s1.1-1,1.8-1.3c0.7-0.3,1.5-0.5,2.4-0.5s1.8,0.2,2.5,0.5s1.3,0.7,1.8,1.3
	c0.5,0.6,0.8,1.2,1.1,1.9c0.2,0.7,0.4,1.5,0.4,2.4s-0.1,1.7-0.4,2.4c-0.2,0.7-0.6,1.4-1.1,1.9s-1.1,1-1.8,1.3
	c-0.7,0.3-1.5,0.5-2.5,0.5c-0.9,0-1.7-0.2-2.4-0.5s-1.3-0.7-1.8-1.3c-0.5-0.5-0.8-1.2-1.1-1.9c-0.2-0.7-0.4-1.5-0.4-2.4
	C280.2,57.9,280.4,57.1,280.6,56.3z M282.6,60.6c0.2,0.5,0.4,1,0.8,1.4c0.3,0.4,0.7,0.7,1.2,0.8c0.4,0.2,0.9,0.3,1.4,0.3
	s1-0.1,1.4-0.3c0.4-0.2,0.8-0.5,1.2-0.8c0.3-0.4,0.6-0.8,0.8-1.4c0.2-0.5,0.3-1.2,0.3-1.9c0-0.7-0.1-1.3-0.3-1.9
	c-0.2-0.5-0.4-1-0.8-1.4c-0.3-0.4-0.7-0.7-1.2-0.9c-0.4-0.2-0.9-0.3-1.4-0.3s-1,0.1-1.4,0.3c-0.4,0.2-0.8,0.5-1.2,0.9
	c-0.3,0.4-0.6,0.8-0.8,1.4c-0.2,0.5-0.3,1.2-0.3,1.9C282.3,59.5,282.4,60.1,282.6,60.6z"/>
<path class="st0" d="M301.7,64.6v-1.9l0,0c-0.4,0.7-0.9,1.3-1.6,1.6c-0.6,0.3-1.4,0.5-2.2,0.5c-0.8,0-1.4-0.1-1.9-0.3
	c-0.5-0.2-0.9-0.5-1.2-0.9c-0.3-0.4-0.5-0.8-0.7-1.3c-0.1-0.5-0.2-1.1-0.2-1.7v-7.7h1.9v7.9c0,0.7,0.2,1.3,0.6,1.7
	c0.4,0.4,1,0.6,1.7,0.6c0.6,0,1.1-0.1,1.5-0.3c0.4-0.2,0.8-0.4,1.1-0.8c0.3-0.3,0.5-0.7,0.6-1.2c0.1-0.4,0.2-0.9,0.2-1.5v-6.6h1.9
	v11.7h-1.7V64.6z"/>
<path class="st0" d="M307.9,62c0.2,0.3,0.4,0.5,0.7,0.7c0.3,0.2,0.6,0.3,1,0.4s0.7,0.1,1.1,0.1c0.3,0,0.6,0,0.9-0.1
	c0.3,0,0.6-0.1,0.9-0.2s0.5-0.3,0.7-0.5s0.3-0.5,0.3-0.9c0-0.5-0.2-0.9-0.6-1.1c-0.4-0.3-0.8-0.5-1.4-0.6c-0.6-0.2-1.2-0.3-1.8-0.4
	c-0.7-0.1-1.3-0.3-1.8-0.5c-0.6-0.2-1-0.6-1.4-1s-0.6-1-0.6-1.8c0-0.6,0.1-1.1,0.4-1.5s0.6-0.8,1-1c0.4-0.3,0.9-0.5,1.4-0.6
	s1-0.2,1.5-0.2c0.7,0,1.3,0.1,1.8,0.2c0.6,0.1,1.1,0.3,1.5,0.6c0.4,0.3,0.8,0.7,1,1.1c0.3,0.5,0.4,1.1,0.5,1.8h-1.9
	c0-0.4-0.1-0.7-0.3-0.9c-0.2-0.2-0.4-0.4-0.6-0.6c-0.3-0.2-0.5-0.3-0.8-0.3c-0.3-0.1-0.6-0.1-0.9-0.1s-0.6,0-0.9,0.1
	c-0.3,0-0.6,0.1-0.8,0.2c-0.2,0.1-0.4,0.3-0.6,0.5s-0.2,0.4-0.2,0.7c0,0.3,0.1,0.6,0.4,0.8c0.2,0.2,0.5,0.4,0.9,0.5s0.8,0.3,1.2,0.4
	c0.5,0.1,0.9,0.2,1.4,0.3c0.5,0.1,1,0.2,1.4,0.4c0.5,0.2,0.9,0.4,1.2,0.6c0.4,0.2,0.6,0.6,0.9,0.9c0.2,0.4,0.3,0.8,0.3,1.4
	c0,0.7-0.1,1.3-0.4,1.8s-0.7,0.8-1.2,1.1c-0.5,0.3-1,0.5-1.6,0.6s-1.2,0.2-1.8,0.2c-0.6,0-1.3-0.1-1.9-0.2s-1.1-0.4-1.6-0.7
	c-0.5-0.3-0.8-0.7-1.1-1.2c-0.3-0.5-0.4-1.1-0.5-1.8h1.9C307.6,61.3,307.7,61.7,307.9,62z"/>
<path class="st0" d="M328.2,16c0.2-0.4,0.4-0.7,0.6-0.9c0.3-0.3,0.6-0.5,0.9-0.6c0.4-0.1,0.7-0.2,1.1-0.2s0.8,0.1,1.1,0.2
	c0.4,0.1,0.7,0.3,0.9,0.6s0.5,0.6,0.6,0.9c0.2,0.4,0.2,0.7,0.2,1.1c0,0.4-0.1,0.8-0.2,1.2c-0.2,0.4-0.4,0.7-0.6,0.9
	c-0.3,0.3-0.6,0.5-0.9,0.6c-0.4,0.1-0.7,0.2-1.1,0.2s-0.8-0.1-1.1-0.2c-0.4-0.1-0.7-0.3-0.9-0.6c-0.3-0.3-0.5-0.6-0.6-0.9
	c-0.2-0.4-0.2-0.7-0.2-1.2C328,16.7,328.1,16.3,328.2,16z M328.7,18.1c0.1,0.3,0.3,0.6,0.5,0.8s0.5,0.4,0.8,0.5s0.6,0.2,1,0.2
	c0.3,0,0.6-0.1,0.9-0.2c0.3-0.1,0.5-0.3,0.8-0.5c0.2-0.2,0.4-0.5,0.5-0.8s0.2-0.6,0.2-1c0-0.3-0.1-0.7-0.2-1s-0.3-0.6-0.5-0.8
	s-0.5-0.4-0.8-0.5s-0.6-0.2-0.9-0.2s-0.7,0.1-1,0.2c-0.3,0.1-0.5,0.3-0.8,0.5c-0.2,0.2-0.4,0.5-0.5,0.8s-0.2,0.6-0.2,1
	C328.5,17.5,328.6,17.8,328.7,18.1z M331.1,15.4c0.4,0,0.7,0.1,0.9,0.2c0.2,0.2,0.3,0.4,0.3,0.7s-0.1,0.5-0.3,0.7
	c-0.2,0.1-0.4,0.2-0.6,0.3l1,1.5h-0.6l-0.9-1.5h-0.6v1.5h-0.5v-3.4H331.1z M330.8,16.9c0.1,0,0.2,0,0.3,0c0.1,0,0.2,0,0.3-0.1
	c0.1,0,0.1-0.1,0.2-0.2c0-0.1,0.1-0.2,0.1-0.3s0-0.2-0.1-0.3c0-0.1-0.1-0.1-0.2-0.2c-0.1,0-0.2-0.1-0.2-0.1c-0.1,0-0.2,0-0.3,0h-0.7
	v1.1L330.8,16.9L330.8,16.9z"/>
<path class="st0" d="M135.7,6c2,0,3.9,0.3,5.6,1c1.7,0.6,3.2,1.6,4.5,2.9c1.3,1.3,2.3,2.9,3,4.8c0.7,1.9,1.1,4.2,1.1,6.8
	c0,2.3-0.3,4.4-0.9,6.3c-0.6,1.9-1.5,3.6-2.6,5c-1.2,1.4-2.7,2.5-4.4,3.3c-1.8,0.8-3.8,1.2-6.2,1.2h-13.5V6H135.7z M135.2,31.5
	c1,0,2-0.2,2.9-0.5s1.8-0.9,2.5-1.6c0.7-0.7,1.3-1.7,1.8-2.9c0.4-1.2,0.7-2.7,0.7-4.4c0-1.6-0.2-3-0.5-4.3s-0.8-2.4-1.5-3.3
	c-0.7-0.9-1.6-1.6-2.8-2.1s-2.6-0.7-4.3-0.7h-4.9v19.7L135.2,31.5L135.2,31.5z"/>
</svg>
